<svg xmlns="http://www.w3.org/2000/svg" viewBox="0 0 576 324" font-family="ui-sans-serif, system-ui, -apple-system, 'Segoe UI', sans-serif">
<rect width="576" height="324" fill="#f7f7f9"/>
<rect x="16" y="16" width="544" height="292" rx="20" fill="#fff" stroke="#e6e7eb"/>
<circle cx="120" cy="150" r="62" fill="none" stroke="#eef0f3" stroke-width="18"/>
<circle cx="120" cy="150" r="62" fill="none" stroke="#0674e7" stroke-width="18" stroke-linecap="round" stroke-dasharray="327 390" transform="rotate(-90 120 150)"/>
<text x="120" y="146" fill="#1b1d21" font-size="24" font-weight="700" text-anchor="middle">84%</text>
<text x="120" y="170" fill="#60636b" font-size="11" text-anchor="middle">updated</text>
<text x="228" y="86" fill="#1b1d21" font-size="18" font-weight="700">Over-the-air updates</text>
<rect x="430" y="60" width="90" height="30" rx="15" fill="#e8f2fe"/><text x="475" y="80" fill="#0674e7" font-size="12" text-anchor="middle">Instant</text>
<g font-size="12" fill="#60636b">
<text x="228" y="140">v2.4.1</text><rect x="290" y="130" width="230" height="10" rx="5" fill="#eef0f3"/><rect x="290" y="130" width="193" height="10" rx="5" fill="#0674e7"/>
<text x="228" y="180">v2.4.0</text><rect x="290" y="170" width="230" height="10" rx="5" fill="#eef0f3"/><rect x="290" y="170" width="28" height="10" rx="5" fill="#c4c6cc"/>
<text x="228" y="220">older</text><rect x="290" y="210" width="230" height="10" rx="5" fill="#eef0f3"/><rect x="290" y="210" width="9" height="10" rx="5" fill="#c4c6cc"/>
</g>
</svg>